<?xml version="1.0" encoding="utf-8"?>
<!-- Generator: Adobe Illustrator 21.0.2, SVG Export Plug-In . SVG Version: 6.00 Build 0)  -->
<svg version="1.1" id="Layer_1_copy" xmlns="http://www.w3.org/2000/svg" xmlns:xlink="http://www.w3.org/1999/xlink" x="0px"
	 y="0px" viewBox="0 0 980 980" enable-background="new 0 0 980 980" xml:space="preserve">
<g>
	<path fill="#FFFFFF" d="M553,441c10.7-4.8,12.3-6.6,18-20c4.4-9.5,2-26.2,2-38c0-25.1-10-37.7-24-46c-14-8.3-23.2-14-51.9-14
		l-40.1,2v122h52C528.7,447,542.3,445.8,553,441z"/>
	<path fill="#FFFFFF" d="M567,541c-13.8-11.3-24.3-17-51.8-17l-54.2-1v144l56,2c53.4,0,70-16.9,70-66C587,577.9,580.8,552.3,567,541
		z"/>
	<path fill="#FFFFFF" d="M490,0C219.4,0,0,219.4,0,490s219.4,490,490,490s490-219.4,490-490S760.6,0,490,0z M661.2,678.4
		c-11.2,22.3-26.2,38.8-45.2,49.4c-11.9,6.3-25.5,10.8-41,13.4c-15.4,2.6-33.4,3.9-54,3.9H401.9c-17.2,0-29.5-4.9-36.8-14.8
		c-7.4-9.8-11-25.5-11-47V309.1c0-22,3.8-37.7,11.3-47.4c7.5-9.6,19.7-14.4,36.6-14.4h126.4c18.6,0,34.8,1.5,48.4,4.4
		c13.7,2.9,25.9,8.6,36.7,17c9.2,7,17.4,15.9,24.5,26.7c7.1,10.8,12.5,22.6,16.2,35.7c3.7,13,5.6,26.8,5.6,41.3
		c0,49.8-19.5,86.3-58.5,109.3c51.2,20.8,76.9,61.4,76.9,121.6C678,631,672.4,656.1,661.2,678.4z"/>
</g>
</svg>
