<?xml version="1.0" encoding="utf-8"?>
<!-- Generator: Adobe Illustrator 21.0.2, SVG Export Plug-In . SVG Version: 6.00 Build 0)  -->
<svg version="1.1" xmlns="http://www.w3.org/2000/svg" xmlns:xlink="http://www.w3.org/1999/xlink" x="0px" y="0px"
	 viewBox="0 0 112.2 112.2" enable-background="new 0 0 112.2 112.2" xml:space="preserve">
<g id="Capa_1">
	<g>
		<path fill="#FFFFFF" d="M72,41.8h8.4c0.8,0,1.5-0.7,1.5-1.5v-8.5c0-0.9-0.7-1.5-1.5-1.5H72c-0.8,0-1.5,0.6-1.5,1.5v8.5
			C70.5,41.1,71.2,41.8,72,41.8z"/>
		<path fill="#FFFFFF" d="M56.1,0C25.1,0,0,25.1,0,56.1c0,31,25.1,56.1,56.1,56.1c31,0,56.1-25.1,56.1-56.1
			C112.2,25.1,87.1,0,56.1,0z M89.7,79.1c0,5.9-4.8,10.6-10.6,10.6h-46c-5.9,0-10.6-4.8-10.6-10.6v-46c0-5.9,4.8-10.6,10.6-10.6h46
			c5.9,0,10.6,4.7,10.6,10.6V79.1z"/>
		<path fill="#FFFFFF" d="M56.1,67.9c6.5,0,11.8-5.3,11.8-11.8c0-2.1-0.5-4.1-1.5-5.8c-0.2-0.4-0.4-0.7-0.7-1.1
			c-2.2-2.9-5.6-4.9-9.6-4.9s-7.4,1.9-9.6,4.9c-0.2,0.3-0.5,0.7-0.7,1.1c-1,1.7-1.5,3.7-1.5,5.8C44.3,62.6,49.6,67.9,56.1,67.9z"/>
		<path fill="#FFFFFF" d="M73.8,51.1c0.5,1.6,0.7,3.3,0.7,5c0,10.2-8.3,18.4-18.4,18.4c-10.2,0-18.4-8.3-18.4-18.4
			c0-1.7,0.2-3.4,0.7-5c0.2-0.7,0.5-1.3,0.7-1.9h-10v27.5c0,3.5,2.9,6.4,6.4,6.4h41.2c3.5,0,6.4-2.8,6.4-6.4c0,0,0-27.5,0-27.5h-10
			C73.4,49.8,73.6,50.5,73.8,51.1z"/>
	</g>
</g>
<g id="Layer_5">
</g>
<g id="Layer_4">
</g>
<g id="Layer_3">
</g>
<g id="Layer_2">
</g>
</svg>
