<?xml version="1.0" encoding="utf-8"?>
<!-- Generator: Adobe Illustrator 21.0.2, SVG Export Plug-In . SVG Version: 6.00 Build 0)  -->
<svg version="1.1" xmlns="http://www.w3.org/2000/svg" xmlns:xlink="http://www.w3.org/1999/xlink" x="0px" y="0px"
	 viewBox="0 0 980 980" enable-background="new 0 0 980 980" xml:space="preserve">
<g id="Layer_1" display="none">
	<g display="inline">
		<path fill="#FFFFFF" d="M490,0C219.4,0,0,219.4,0,490s219.4,490,490,490s490-219.4,490-490S760.6,0,490,0z M678.4,552.8
			c0,0,43.3,42.8,54,62.6c0.3,0.4,0.5,0.8,0.6,1c4.3,7.3,5.4,13,3.2,17.2c-3.6,7-15.8,10.5-20,10.8c0,0-74.4,0-76.6,0
			c-5.3,0-16.4-1.4-29.9-10.7c-10.4-7.2-20.6-19.1-30.5-30.7c-14.9-17.3-27.7-32.2-40.7-32.2c-1.6,0-3.3,0.3-4.8,0.8
			c-9.8,3.2-22.4,17.1-22.4,54.4c0,11.6-9.2,18.3-15.7,18.3c0,0-33.4,0-35.1,0c-11.9,0-74.2-4.2-129.3-62.3
			C263.7,510.8,203,368,202.5,366.7c-3.8-9.2,4.1-14.2,12.7-14.2h77.3c10.3,0,13.7,6.3,16,11.8c2.8,6.5,12.9,32.3,29.5,61.3
			c26.9,47.3,43.4,66.5,56.6,66.5c2.5,0,4.8-0.7,7.1-1.8c17.3-9.6,14-71.1,13.3-83.9c0-2.4-0.1-27.5-8.9-39.6
			c-6.3-8.7-17.1-12-23.6-13.3c1.7-2.5,5.5-6.3,10.2-8.6c11.8-5.9,33.2-6.8,54.4-6.8h11.8c23,0.3,28.9,1.8,37.2,3.9
			c16.8,4,17.2,14.9,15.7,52.1c-0.5,10.6-0.9,22.5-0.9,36.6c0,3.1-0.2,6.3-0.2,9.8c-0.5,18.9-1.1,40.4,12.3,49.3
			c1.7,1.1,3.7,1.7,5.8,1.7c4.6,0,18.6,0,56.5-65c16.6-28.7,29.5-62.5,30.4-65c0.8-1.3,3-5.4,5.7-7c2.1-1.2,4.9-1.5,6.3-1.5h90.9
			c9.9,0,16.7,1.5,18,5.3c2.2,6.1-0.4,24.6-41.9,80.8c-7,9.3-13.2,17.4-18.5,24.4C638.5,512.9,638.5,515.4,678.4,552.8z"/>
	</g>
</g>
<g id="Layer_1_copy">
	<path fill="#FFFFFF" d="M490,0C219.4,0,0,219.4,0,490s219.4,490,490,490s490-219.4,490-490S760.6,0,490,0z M736.2,633.6
		c-3.6,7-15.8,10.5-20,10.8c0,0-74.4,0-76.6,0c-5.3,0-16.4-1.4-29.9-10.7c-10.4-7.2-20.6-19.1-30.5-30.7
		c-14.9-17.3-27.7-32.2-40.7-32.2c-1.6,0-3.3,0.3-4.8,0.8c-9.8,3.2-22.4,17.1-22.4,54.4c0,11.6-9.2,18.3-15.7,18.3
		c0,0-33.4,0-35.1,0c-11.9,0-74.2-4.2-129.3-62.3C263.7,510.8,203,368,202.5,366.7c-3.8-9.2,4.1-14.2,12.7-14.2h77.3
		c10.3,0,13.7,6.3,16,11.8c2.8,6.5,12.9,32.3,29.5,61.3c26.9,47.3,43.4,66.5,56.6,66.5c2.5,0,4.8-0.7,7.1-1.8
		c17.3-9.6,14-71.1,13.3-83.9c0-2.4-0.1-27.5-8.9-39.6c-6.3-8.7-17.1-12-23.6-13.3c1.7-2.5,5.5-6.3,10.2-8.6
		c11.8-5.9,33.2-6.8,54.4-6.8h11.8c23,0.3,28.9,1.8,37.2,3.9c16.8,4,17.2,14.9,15.7,52.1c-0.5,10.6-0.9,22.5-0.9,36.6
		c0,3.1-0.2,6.3-0.2,9.8c-0.5,18.9-1.1,40.4,12.3,49.3c1.7,1.1,3.7,1.7,5.8,1.7c4.6,0,18.6,0,56.5-65c16.6-28.7,29.5-62.5,30.4-65
		c0.8-1.3,3-5.4,5.7-7c2.1-1.2,4.9-1.5,6.3-1.5h90.9c9.9,0,16.7,1.5,18,5.3c2.2,6.1-0.4,24.6-41.9,80.8c-7,9.3-13.2,17.4-18.5,24.4
		c-37.7,49.4-37.7,51.9,2.2,89.3c0,0,43.3,42.8,54,62.6c0.3,0.4,0.5,0.8,0.6,1C737.3,623.7,738.4,629.4,736.2,633.6z"/>
</g>
<g id="Layer_2">
	<g>
		<path d="M527,739.1H407.9c-17.2,0-29.5-4.9-36.8-14.8c-7.4-9.8-11-25.5-11-47V303.1c0-22,3.8-37.7,11.3-47.4
			c7.5-9.6,19.7-14.4,36.6-14.4h126.4c18.6,0,34.8,1.5,48.4,4.4c13.7,2.9,25.9,8.6,36.7,17c9.2,7,17.4,15.9,24.5,26.7
			c7.1,10.8,12.5,22.6,16.2,35.7c3.7,13,5.6,26.8,5.6,41.3c0,49.8-19.5,86.3-58.5,109.3c51.2,20.8,76.9,61.4,76.9,121.6
			c0,27.8-5.6,52.9-16.8,75.2c-11.2,22.3-26.2,38.8-45.2,49.4c-11.9,6.3-25.5,10.8-41,13.4C565.6,737.8,547.6,739.1,527,739.1z
			 M463,319v122h52c19.7,0,33.3-1.2,44-6c10.7-4.8,12.3-6.6,18-20c4.4-9.5,2-26.2,2-38c0-25.1-10-37.7-24-46
			c-14-8.3-23.2-14-51.9-14L463,319z M521.2,518l-54.2-1v144l56,2c53.4,0,70-16.9,70-66c0-25.1-6.2-50.7-20-62
			C559.2,523.7,548.7,518,521.2,518z"/>
	</g>
</g>
</svg>
