<?xml version="1.0" encoding="utf-8"?>
<!-- Generator: Adobe Illustrator 25.4.1, SVG Export Plug-In . SVG Version: 6.00 Build 0)  -->
<svg version="1.1" id="Layer_1" xmlns="http://www.w3.org/2000/svg" xmlns:xlink="http://www.w3.org/1999/xlink" x="0px" y="0px"
	 viewBox="0 0 1280 1186" style="enable-background:new 0 0 1280 1186;" xml:space="preserve">
<style type="text/css">
	.st0{fill:#EEF1EF;}
</style>
<path class="st0" d="M1048.9,252.8C996.4,298.9,872.7,407.6,774,494.3S594.2,652,593.8,652c-0.4,0-43.1-48.3-94.9-107.3
	c-51.8-58.9-94.9-108-95.9-109c-1.8-2,7.9-10.2-115.8,98.5c-19.9,17.5-36.2,32.2-36.2,32.6c0,0.5,50.2,57.9,111.6,127.7
	c61.4,69.9,134.8,153.4,163.2,185.7l51.5,58.7l3.6-3.1c2-1.8,46.1-40.5,98.1-86.2c138.3-121.5,432.7-380.1,532.8-468l68.2-60
	l-2.3-2.5c-1.3-1.4-31.5-35.8-67.1-76.4c-35.6-40.5-65.1-73.7-65.5-73.7C1144.7,169,1101.4,206.7,1048.9,252.8z"/>
<path class="st0" d="M1185.8,768.9l-0.3-276.6l-73.5,64.6l-46.2,40.6v468.4h-946V120h946v29.2l33.9-29.8l61.3-53.6l-2.2-3.2
	c-5.4-7.7-16.6-20.1-24.1-26.4c-23-19.5-50.4-31.6-79.2-35.1c-11-1.3-913.9-1.3-925.5,0c-35,4-71.1,23.4-94,50.4
	c-17.3,20.4-28.2,43.2-33.7,70c-1.7,8.6-1.8,28-1.8,472v463l2.3,10.2c13.3,60,57.3,103.9,117,116.5l10.7,2.3H593
	c443.5,0,462.9-0.1,471.5-1.8c36-7.4,66.6-25.6,88.5-52.9c18-22.4,28.9-48.2,32-75.4C1185.8,1048.3,1186,968.1,1185.8,768.9z"/>
</svg>
